<svg width="116" height="116" viewBox="0 0 116 116" fill="none" xmlns="http://www.w3.org/2000/svg">
<path fill-rule="evenodd" clip-rule="evenodd" d="M107.774 0C112.307 0 116 3.68814 116 8.21735C116 9.57563 115.734 10.7744 115.227 11.8523L96.6667 51.0104V103.916C96.6667 110.577 91.2437 116 84.5833 116H12.0833C5.423 116 0 110.577 0 103.916V31.4096C0 24.7487 5.423 19.3253 12.0833 19.3253H84.5833C87.7202 19.3253 90.596 20.6352 92.8 22.7089L100.195 5.04159C101.481 1.977 104.453 0 107.774 0ZM84.5833 111.166C88.5805 111.166 91.8333 107.913 91.8333 103.916V61.2096L81.0985 83.8508C83.201 89.4628 80.417 96.9938 76.618 100.793C73.979 103.442 68.1258 105.627 62.089 105.627C57.3668 105.627 52.5383 104.293 49.039 100.793C48.4493 100.203 48.2077 99.3526 48.3913 98.5405C48.575 97.743 49.1453 97.1001 49.909 96.8149C49.996 96.7811 51.214 96.1913 53.2005 94.427C53.1983 94.3982 53.191 94.3714 53.1837 94.3448C53.1752 94.3134 53.1667 94.2822 53.1667 94.2482V65.2458C53.1667 63.9117 54.2493 62.8289 55.5833 62.8289H76.009L78.0342 57.9952H16.9167C15.5827 57.9952 14.5 56.9124 14.5 55.5783V36.2434C14.5 34.9092 15.5827 33.8265 16.9167 33.8265H79.75C81.084 33.8265 82.1667 34.9092 82.1667 36.2434V48.1247L90.7168 27.6876C89.4118 25.5415 87.1305 24.159 84.5833 24.159H12.0833C8.08617 24.159 4.83333 27.4121 4.83333 31.4096V103.916C4.83333 107.913 8.08617 111.166 12.0833 111.166H84.5833ZM61.1175 80.4624C59.6143 81.9657 58.6815 83.527 58 85.0399V67.6675H73.9887L70.2815 76.5229C67.0528 76.4649 63.8097 77.7651 61.1175 80.4624ZM61.3157 90.067C60.6293 92.3195 59.914 94.6494 57.8937 96.6747C56.811 97.7575 55.854 98.5937 55.0227 99.2414C61.2722 102.509 70.586 99.9858 73.2057 97.3708C76.3473 94.2289 78.6818 86.9299 75.6223 83.8702C72.2052 80.4527 67.9567 80.4527 64.5395 83.8702C62.6158 85.794 61.9827 87.8725 61.3157 90.067ZM77.836 79.4521C76.9418 78.7271 76.0187 78.1083 75.052 77.654L81.5577 62.1038L85.2117 63.8972L77.836 79.4521ZM77.3333 53.1614V38.6602H19.3333V53.1614H77.3333ZM110.853 9.79315L87.2755 59.5323L83.4233 57.6423L95.6758 28.3595L104.651 6.90741C105.178 5.6458 106.406 4.83374 107.779 4.83374C109.644 4.83374 111.162 6.35153 111.162 8.3817C111.162 8.86507 111.055 9.36295 110.853 9.79315ZM40.4098 62.7541H16.6393C15.3272 62.7541 14.2623 63.8456 14.2623 65.1906V99.3012C14.2623 100.646 15.3272 101.738 16.6393 101.738H40.4098C41.722 101.738 42.7869 100.646 42.7869 99.3012V65.1906C42.7869 63.8456 41.722 62.7541 40.4098 62.7541ZM38.0328 96.8648H19.0164V67.627H38.0328V96.8648Z" fill="url(#paint0_linear_19_98)"/>
<defs>
<linearGradient id="paint0_linear_19_98" x1="72.7656" y1="-121.136" x2="-80.3013" y2="39.4665" gradientUnits="userSpaceOnUse">
<stop stop-color="#01DCBA"/>
<stop offset="1" stop-color="#7F30CB"/>
</linearGradient>
</defs>
</svg>
