<svg width="64" height="116" viewBox="0 0 64 116" fill="none" xmlns="http://www.w3.org/2000/svg">
<path fill-rule="evenodd" clip-rule="evenodd" d="M10 55.3438C10 67.2836 19.8707 77 32 77C44.1293 77 54 67.2884 54 55.3438V52.875H59.0769V55.3125C59.0769 69.6965 47.5783 81.4692 33.2108 82.0985C32.9855 82.0344 32.7469 82 32.5 82C32.2228 82 31.9561 82.0434 31.7069 82.1235C16.9145 81.9672 4.92308 70.0015 4.92308 55.3125V52.875H10V55.3438ZM54 41.5V48H61.5385C62.8972 48 64 49.092 64 50.4375V55.3125C64 71.7829 51.2431 85.3594 35 86.8619V101H41.7108C48.1798 101 53.4877 106.19 53.8829 112.72C53.9658 112.965 54 113.225 54 113.5C54.0049 114.885 52.9121 116 51.5656 116H51.468H12.4393C11.0928 116 10 114.88 10 113.5C10 106.61 15.4689 101 22.1965 101H30V86.9388C13.2836 85.913 0 72.1194 0 55.3125V50.4375C0 49.092 1.10277 48 2.46154 48H10V41.5V31.5V21.6562C10 21.6175 10.0001 21.5787 10.0003 21.54C10.0001 21.5267 10 21.5134 10 21.5C10 21.4726 10.0004 21.4453 10.0013 21.4181C10.1315 9.58748 19.9514 0 32 0C44.0487 0 53.8687 9.58772 53.9987 21.4185C53.9996 21.4456 54 21.4727 54 21.5C54 21.5133 53.9999 21.5266 53.9997 21.5399C53.9999 21.5787 54 21.6174 54 21.6562V31.5V41.5ZM49.1111 34V39H14.8889V34H22.5C23.88 34 25 32.88 25 31.5C25 30.12 23.88 29 22.5 29H14.8889V24H22.5C23.88 24 25 22.88 25 21.5C25 20.12 23.88 19 22.5 19H15.1014C16.399 10.9695 23.4824 4.8125 32 4.8125C40.5172 4.8125 47.6003 10.9729 48.8984 19H41.5C40.12 19 39 20.12 39 21.5C39 22.88 40.12 24 41.5 24H49.1111V29H41.5C40.12 29 39 30.12 39 31.5C39 32.88 40.12 34 41.5 34H49.1111ZM49.1111 44V55.3438C49.1111 64.6319 41.4356 72.1875 32 72.1875C22.5644 72.1875 14.8889 64.6319 14.8889 55.3438V44H49.1111ZM32.5 106H22.1965C19.0156 106 16.3031 108.09 15.2981 111H48.6091C47.6042 108.09 44.8917 106 41.7108 106H32.5Z" fill="url(#paint0_linear_0_292)"/>
<defs>
<linearGradient id="paint0_linear_0_292" x1="45.8393" y1="-112.464" x2="-83.9531" y2="-44.6262" gradientUnits="userSpaceOnUse">
<stop stop-color="#01DCBA"/>
<stop offset="1" stop-color="#7F30CB"/>
</linearGradient>
</defs>
</svg>
