<svg width="81" height="96" viewBox="0 0 81 96" fill="none" xmlns="http://www.w3.org/2000/svg">
<path fill-rule="evenodd" clip-rule="evenodd" d="M4.05556 84H54.75C55.8693 84 56.7778 84.896 56.7778 86C56.7778 87.104 55.8693 88 54.75 88H2.02778C0.908444 88 0 87.104 0 86V26C0 25.732 0.0567778 25.472 0.158167 25.228C0.190767 25.1476 0.243386 25.0798 0.296518 25.0113L0.296559 25.0113C0.32273 24.9775 0.349024 24.9436 0.373111 24.908C0.397445 24.872 0.419525 24.8342 0.441606 24.7964C0.485766 24.7209 0.529926 24.6453 0.592111 24.584L24.9254 0.584C24.9934 0.516938 25.0773 0.469395 25.1603 0.422283C25.1962 0.401953 25.2319 0.381703 25.2661 0.36C25.3024 0.336596 25.3368 0.310822 25.371 0.285126C25.4363 0.236163 25.5013 0.187479 25.5784 0.156C25.8258 0.056 26.0894 0 26.3611 0H70.9722C72.0916 0 73 0.896 73 2V50C73 51.104 72.0916 52 70.9722 52C69.8529 52 68.9444 51.104 68.9444 50V4H28.3889V26C28.3889 27.104 27.4804 28 26.3611 28H4.05556V84ZM62 24H38C36.896 24 36 24.896 36 26C36 27.104 36.896 28 38 28H62C63.104 28 64 27.104 64 26C64 24.896 63.104 24 62 24ZM81 66C81 60.488 76.2876 56 70.5 56C64.7124 56 60 60.488 60 66C60 69.24 61.6548 72.1 64.1748 73.928L60.042 93.604C59.8866 94.356 60.1932 95.124 60.8274 95.588C61.4658 96.056 62.3268 96.128 63.0408 95.788L70.5 92.236L77.9592 95.788C78.2574 95.928 78.5808 96 78.9 96C79.3494 96 79.803 95.86 80.1684 95.588C80.8068 95.12 81.1134 94.356 80.9538 93.604L76.821 73.932C79.3452 72.1 81 69.244 81 66ZM70.5606 87.928C71.1532 87.6609 71.851 87.6609 72.4394 87.928L77 90L73.919 76.0038C73.1372 76.1717 72.3386 76.2824 71.5021 76.2824C70.6656 76.2824 69.8628 76.1717 69.081 76L66 90L70.5606 87.928ZM71 72C67.692 72 65 69.308 65 66C65 62.692 67.692 60 71 60C74.308 60 77 62.692 77 66C77 69.308 74.308 72 71 72ZM24 7V24H6L24 7ZM10.0357 41H62.9643C64.088 41 65 41.896 65 43C65 44.104 64.088 45 62.9643 45H10.0357C8.912 45 8 44.104 8 43C8 41.896 8.912 41 10.0357 41ZM55 56H11C9.896 56 9 56.896 9 58C9 59.104 9.896 60 11 60H55C56.104 60 57 59.104 57 58C57 56.896 56.104 56 55 56ZM29 74C29 75.104 28.0592 76 26.9 76H10.1C8.9408 76 8 75.104 8 74C8 72.896 8.9408 72 10.1 72H26.9C28.0592 72 29 72.896 29 74Z" fill="url(#paint0_linear_19_148)"/>
<defs>
<linearGradient id="paint0_linear_19_148" x1="33.6249" y1="-82.9215" x2="-71.9704" y2="26.6262" gradientUnits="userSpaceOnUse">
<stop stop-color="#01DCBA"/>
<stop offset="1" stop-color="#7F30CB"/>
</linearGradient>
</defs>
</svg>
